<svg width="30" height="25" viewBox="0 0 30 25" fill="none" xmlns="http://www.w3.org/2000/svg">
<path fill-rule="evenodd" clip-rule="evenodd" d="M20.323 1.18555H9.67708L9.27708 2.18555H20.723L20.323 1.18555ZM21.8 2.18555L21.2515 0.814209C21.0996 0.434448 20.7319 0.185547 20.323 0.185547H9.67708C9.26818 0.185547 8.90047 0.434448 8.74861 0.814209L8.20005 2.18555H1C0.447715 2.18555 0 2.6333 0 3.18555V23.1855C0 23.7378 0.447716 24.1855 1 24.1855H29C29.5523 24.1855 30 23.7378 30 23.1855V3.18555C30 2.6333 29.5523 2.18555 29 2.18555H21.8ZM1 3.18555H7.80005H8.87708H21.123H22.2H29V23.1855H1V3.18555ZM21.7998 12.7856C21.7998 16.5411 18.7554 19.5856 14.9998 19.5856C11.2443 19.5856 8.19983 16.5411 8.19983 12.7856C8.19983 9.03003 11.2443 5.9856 14.9998 5.9856C18.7554 5.9856 21.7998 9.03003 21.7998 12.7856ZM22.7998 12.7856C22.7998 17.0934 19.3077 20.5856 14.9998 20.5856C10.692 20.5856 7.19983 17.0934 7.19983 12.7856C7.19983 8.47778 10.692 4.9856 14.9998 4.9856C19.3077 4.9856 22.7998 8.47778 22.7998 12.7856ZM19.3996 12.7855C19.3996 15.2156 17.4297 17.1855 14.9996 17.1855C12.5696 17.1855 10.5996 15.2156 10.5996 12.7855C10.5996 10.3555 12.5696 8.3855 14.9996 8.3855C17.4297 8.3855 19.3996 10.3555 19.3996 12.7855ZM20.3996 12.7855C20.3996 15.7678 17.9819 18.1855 14.9996 18.1855C12.0173 18.1855 9.59961 15.7678 9.59961 12.7855C9.59961 9.8031 12.0173 7.3855 14.9996 7.3855C17.9819 7.3855 20.3996 9.8031 20.3996 12.7855ZM6.59983 6.7854C6.59983 7.44824 6.06257 7.98547 5.39983 7.98547C4.73709 7.98547 4.19983 7.44824 4.19983 6.7854C4.19983 6.12268 4.73709 5.58545 5.39983 5.58545C6.06257 5.58545 6.59983 6.12268 6.59983 6.7854Z" fill="#D6D6D6"/>
</svg>
