<svg width="135" height="75" viewBox="0 0 135 75" fill="none" xmlns="http://www.w3.org/2000/svg">
<g clip-path="url(#clip0_9956_141)">
<path d="M19.0805 13.459H16.7281V15.8109H19.0805V13.459Z" fill="white"/>
<path d="M19.0805 10.9756H16.7281V13.4582H19.0805V10.9756Z" fill="black"/>
<path d="M23.7849 10.9759H26.1373V8.62402H23.7849H21.4326H19.0802V10.9759H21.4326H23.7849Z" fill="black"/>
<path d="M28.6203 10.9756H26.2679V13.4582H28.6203V10.9756Z" fill="black"/>
<path d="M30.973 13.459H28.6206V15.8109H30.973V13.459Z" fill="black"/>
<path d="M33.3256 10.9756H30.9733V13.4582H33.3256V10.9756Z" fill="black"/>
<path d="M38.1606 8.62402H35.6776H35.4162H33.3252V10.9759H35.4162H35.6776H38.1606H40.513V8.62402H38.1606Z" fill="black"/>
<path d="M42.8654 10.9756H40.5131V13.4582H42.8654V10.9756Z" fill="black"/>
<path d="M42.8656 13.459V15.8109V18.1628V22.9973H45.3487V18.1628V15.8109V13.459H42.8656Z" fill="black"/>
<path d="M42.8654 22.9971H40.5131V25.349H42.8654V22.9971Z" fill="black"/>
<path d="M40.5134 25.3486H38.161V27.7006H40.5134V25.3486Z" fill="black"/>
<path d="M38.1609 27.7002H35.6779V30.0521H38.1609V27.7002Z" fill="black"/>
<path d="M35.6776 30.0527H33.3252V32.4046H35.6776V30.0527Z" fill="black"/>
<path d="M33.3256 32.5352H30.9733V34.8871H33.3256V32.5352Z" fill="black"/>
<path d="M30.973 34.8867H28.6206V37.2386H30.973V34.8867Z" fill="black"/>
<path d="M28.6203 32.5352H26.2679V34.8871H28.6203V32.5352Z" fill="black"/>
<path d="M26.2685 30.0527H23.7854V32.5353H26.2685V30.0527Z" fill="black"/>
<path d="M23.7851 27.7002H21.4327V30.0521H23.7851V27.7002Z" fill="black"/>
<path d="M21.4326 25.3486H19.0802V27.7006H21.4326V25.3486Z" fill="black"/>
<path d="M19.0805 22.9971H16.7281V25.349H19.0805V22.9971Z" fill="black"/>
<path d="M16.7281 20.5147V18.1628V15.8109V13.459H14.245V15.8109V18.1628V20.5147V22.8667H16.7281V20.5147Z" fill="black"/>
<path d="M40.5135 13.4582V10.9756H38.1611H35.6781H35.1553H33.3257V13.4582H30.9733V15.8101H28.6209V13.4582H26.2686V10.9756H23.7855H21.4331V13.4582H19.0808V15.8101H16.7284V22.9965H19.0808V25.3484H21.4331V27.7003H23.7855V30.0522H26.2686V32.5348H28.6209V34.8867H30.9733V32.5348H33.3257V30.0522H35.6781V27.7003H38.1611V25.3484H40.5135V22.9965H42.8659V13.4582H40.5135Z" fill="#CE0002"/>
<path d="M21.4326 10.9756H19.0802V13.3275H21.4326V10.9756Z" fill="white"/>
<path d="M78.6738 13.4585V10.9759H76.3214V8.62402H73.9691H71.6167H69.2643V10.9759H66.7812V13.4585H64.4289V10.9759H61.9458V8.62402H59.5934H57.2411H54.8887V10.9759H57.2411V13.4585H54.8887V15.8104H52.5363V13.4585H54.8887V10.9759H52.5363V13.4585H50.184V15.8104V18.1624V20.5143V22.8662H52.5363V25.3488H54.8887V22.8662H52.5363V20.5143H54.8887H57.2411H59.5934H61.9458H64.4289H66.7812H69.1336H71.6167H73.9691H76.3214H78.6738V22.8662H76.3214V25.3488H78.6738V22.8662H81.1569V20.5143V18.1624V15.8104V13.4585H78.6738Z" fill="black"/>
<path d="M76.3211 25.3486H73.9688V27.7006H76.3211V25.3486Z" fill="black"/>
<path d="M73.9692 27.7002H71.6168V30.0521H73.9692V27.7002Z" fill="black"/>
<path d="M71.6167 30.0527H69.1337V32.4046H71.6167V30.0527Z" fill="black"/>
<path d="M69.1334 32.4043H66.781V34.8869H69.1334V32.4043Z" fill="black"/>
<path d="M66.7813 34.8867H64.429V37.2386H66.7813V34.8867Z" fill="black"/>
<path d="M64.4289 32.4043H61.9458V34.8869H64.4289V32.4043Z" fill="black"/>
<path d="M61.9456 30.0527H59.5933V32.4046H61.9456V30.0527Z" fill="black"/>
<path d="M59.5936 27.7002H57.2412V30.0521H59.5936V27.7002Z" fill="black"/>
<path d="M57.2409 25.3486H54.8885V27.7006H57.2409V25.3486Z" fill="black"/>
<path d="M54.889 13.459H52.5366V15.8109H54.889V13.459Z" fill="white"/>
<path d="M76.3217 20.5146H73.9693H71.617H69.1339H66.7815H64.4292H61.9461H59.5937H57.2414H54.889H52.5366V22.8666H54.889V25.3491H57.2414V27.7011H59.5937V30.053H61.9461V32.4049H64.4292V34.8875H66.7815V32.4049H69.1339V30.053H71.617V27.7011H73.9693V25.3491H76.3217V22.8666H78.6741V20.5146H76.3217Z" fill="#CE0002"/>
<path d="M57.241 10.9756H54.8887V13.3275H57.241V10.9756Z" fill="white"/>
<path d="M90.6975 11.1064H88.3451V13.4584H90.6975V11.1064Z" fill="black"/>
<path d="M114.482 13.4585V10.9759H112.13V8.62402H109.778H107.425H105.073V10.9759H102.59V13.4585H100.237V10.9759H97.885V8.75469H95.4019H95.0098H93.0495H90.6972V11.1066H93.0495V13.4585H90.6972V15.8104H88.3448V13.4585H85.9924V15.8104V18.1623V20.5143V22.8662H88.3448V25.3488H90.6972V27.7007H93.0495V30.0526H94.6178H95.4019H95.5326V32.4045H97.885V34.8871H100.237V37.239H102.59V34.8871H100.237V32.4045H97.885V30.0526H100.237H102.59H104.942V32.4045H102.59V34.8871H104.942V32.4045H107.425V30.0526H109.778V27.7007H112.13V25.3488H114.482V22.8662H116.965V20.5143V18.1623V15.8104V13.4585H114.482Z" fill="black"/>
<path d="M90.6969 13.459H88.3445V15.8109H90.6969V13.459Z" fill="white"/>
<path d="M102.59 32.4043H100.238V34.8869H102.59V32.4043Z" fill="#CE0002"/>
<path d="M100.237 30.0527H97.8849V32.4046H100.237V30.0527Z" fill="#CE0002"/>
<path d="M102.59 30.0527H100.238V32.4046H102.59V30.0527Z" fill="#CE0002"/>
<path d="M104.942 30.0527H102.589V32.4046H104.942V30.0527Z" fill="#CE0002"/>
<path d="M93.0494 11.1064H90.697V13.4584H93.0494V11.1064Z" fill="white"/>
<path d="M13.5916 57.3607V55.9234H12.1541V57.3607V58.798V60.2352V61.6725V63.1098V64.5471V65.9844H13.5916V67.4216H12.1541H10.7165H9.27893H7.84137V65.9844H9.27893V64.5471V63.1098V61.6725V60.2352V58.798V57.3607V55.9234H7.84137V57.3607H6.40381V55.9234V54.4861V53.0488H7.84137H9.27893H10.7165H12.1541H13.5916H15.0292V54.4861V55.9234V57.3607H13.5916Z" fill="black"/>
<path d="M24.8304 67.2914H23.3929H21.9553H20.5177H19.0802V65.8542H17.7733V64.4169V62.9796V61.5423V60.105V58.6678H19.2109V57.2305H20.6484H22.086H23.5236H24.9611H26.3987V58.6678H27.8362V60.105V61.5423V62.9796V64.4169V65.8542H26.3987V67.2914H24.8304ZM23.5236 65.8542H24.9611V64.4169V62.9796V61.5423V60.105V58.6678H23.5236H22.086H20.6484V60.105V61.5423V62.9796V64.4169V65.8542H22.086H23.5236Z" fill="black"/>
<path d="M36.2005 71.4726H34.7629H33.4561H32.0185H30.5809V70.0353H32.0185H33.4561H34.7629H36.2005V68.7287H37.638V67.2914H36.2005H34.7629H33.4561H32.0185V65.8542H30.5809V64.4169V62.9796V61.5423V60.105V58.6678V57.2305H32.0185H33.4561V58.6678V60.105V61.5423V62.9796V64.4169V65.8542H34.7629H36.2005H37.638V64.4169V62.9796V61.5423V60.105V58.6678V57.2305H39.0756H40.5132V58.6678V60.105V61.5423V62.9796V64.4169V65.8542V67.2914V68.7287H39.0756V70.166H37.638V71.6033L36.2005 71.4726Z" fill="black"/>
<path d="M49.0079 67.2906H47.5703V65.8533V64.416H49.0079H50.4454V65.8533V67.2906H49.0079Z" fill="black"/>
<path d="M63.1222 67.291H61.6847H60.2471H58.8096H57.372V65.8537H55.9344V64.4164V62.9791H57.372H58.8096V64.4164V65.8537H60.2471H61.6847H63.1222V64.4164V62.9791V61.5419H61.6847V60.1046H60.2471H58.8096V58.6673H57.372V57.23H55.9344V55.7927V54.3554H57.372V53.0488H58.8096H60.2471H61.6847H63.1222H64.5598V54.4861H65.9974V55.9234V57.3607H64.5598H63.1222V55.9234V54.4861H61.6847H60.2471H58.8096V55.9234V57.3607H60.2471V58.798H61.6847H63.1222V60.2352H64.5598V61.6725H65.9974V63.1098V64.5471V65.9844H64.5598V67.4216L63.1222 67.291Z" fill="black"/>
<path d="M75.9293 67.291H74.4917H73.0541V65.8537H71.6166V64.4164V62.9791V61.5419V60.1046V58.6673H70.179H68.7415V57.23H70.179H71.6166V55.7927V54.3554H73.0541V53.0488H74.4917V54.4861V55.9234V57.3607H75.9293H77.3668V58.798H75.9293H74.4917V60.2352V61.6725V63.1098V64.5471V65.9844H75.9293V64.5471H77.3668H78.8044V65.9844H77.3668V67.4216L75.9293 67.291Z" fill="black"/>
<path d="M85.8617 67.2914H84.4242H82.9866H81.5491V65.8542H82.9866V64.4169V62.9796V61.5423V60.105V58.6678H81.5491V57.2305H82.9866H84.4242V58.6678H85.8617V57.2305H87.2993H88.7369H90.1744V58.6678H91.612V60.105V61.5423H90.1744H88.7369V60.105V58.6678H87.2993V60.105H85.8617V61.5423V62.9796V64.4169V65.8542H87.2993V67.2914H85.8617Z" fill="black"/>
<path d="M101.413 67.2914H99.9757H98.5381H97.1006H95.663V65.8542H94.2255V64.4169V62.9796V61.5423V60.105V58.6678H95.663V57.2305H97.1006H98.5381H99.9757H101.413H102.851V58.6678H104.288V60.105V61.5423H102.851H101.413H99.9757H98.5381H97.1006V62.9796V64.4169V65.8542H98.5381H99.9757H101.413V64.4169H102.851H104.288V65.8542H102.851V67.2914H101.413ZM99.9757 60.2357H101.413V58.7984H99.9757H98.5381H97.1006V60.2357H98.5381H99.9757Z" fill="black"/>
<path d="M115.658 67.2914H114.221V65.8542H112.783V64.4169V62.9796V61.5423H111.346H109.908V62.9796V64.4169V65.8542H111.346H112.783V67.2914H111.346H109.908H108.471V65.8542H107.033V64.4169V62.9796V61.5423H108.471V60.105H109.908H111.346H112.783V58.6678H111.346H109.908H108.471V57.2305H109.908H111.346H112.783H114.221V58.6678H115.658V60.105V61.5423V62.9796V64.4169V65.8542H117.096V67.2914H115.658Z" fill="black"/>
<path d="M124.153 65.8542V64.4169V62.9796V61.5423V60.105H122.716V61.5423V62.9796V64.4169V65.8542V67.2914H121.278H119.841V65.8542V64.4169V62.9796V61.5423V60.105V58.6678V57.2305H121.278H122.716H124.153V58.6678H125.591V57.2305H127.028H128.466V58.6678H129.904V60.105V61.5423V62.9796V64.4169V65.8542V67.2914H128.466H127.028V65.8542V64.4169V62.9796V61.5423V60.105H125.591V61.5423V62.9796V64.4169V65.8542H124.153Z" fill="black"/>
</g>
<defs>
<clipPath id="clip0_9956_141">
<rect width="135" height="75" fill="white"/>
</clipPath>
</defs>
</svg>
