<svg width="118" height="21" viewBox="0 0 118 21" fill="none" xmlns="http://www.w3.org/2000/svg">
<path d="M10 0.185547L12.2451 7.09538H19.5106L13.6327 11.3659L15.8779 18.2757L10 14.0052L4.12215 18.2757L6.36729 11.3659L0.489435 7.09538H7.75486L10 0.185547Z" fill="#1A1A1A"/>
<path d="M34.5 0.185547L36.6329 7.09538H43.535L37.9511 11.3659L40.084 18.2757L34.5 14.0052L28.916 18.2757L31.0489 11.3659L25.465 7.09538H32.3671L34.5 0.185547Z" fill="#1A1A1A"/>
<path d="M59 0.185547L61.2451 7.09538H68.5106L62.6327 11.3659L64.8779 18.2757L59 14.0052L53.1221 18.2757L55.3673 11.3659L49.4894 7.09538H56.7549L59 0.185547Z" fill="#1A1A1A"/>
<path d="M83.5 0.185547L85.6329 7.09538H92.535L86.9511 11.3659L89.084 18.2757L83.5 14.0052L77.916 18.2757L80.0489 11.3659L74.465 7.09538H81.3671L83.5 0.185547Z" fill="#1A1A1A"/>
<path d="M108 0.185547L110.245 7.09538H117.511L111.633 11.3659L113.878 18.2757L108 14.0052L102.122 18.2757L104.367 11.3659L98.4894 7.09538H105.755L108 0.185547Z" fill="#D6D6D6"/>
</svg>
